<?xml version="1.0" standalone="no"?><!DOCTYPE svg PUBLIC "-//W3C//DTD SVG 1.1//EN" "http://www.w3.org/Graphics/SVG/1.1/DTD/svg11.dtd"><svg class="icon" width="128px" height="128.00px" viewBox="0 0 1024 1024" version="1.1" xmlns="http://www.w3.org/2000/svg"><path d="M896 448c-25.6 0-42.666667 17.066667-42.666667 42.666667V853.333333c0 25.6-17.066667 42.666667-42.666666 42.666667H213.333333c-25.6 0-42.666667-17.066667-42.666666-42.666667V170.666667c0-25.6 17.066667-42.666667 42.666666-42.666667h384v213.333333c0 25.6 17.066667 42.666667 42.666667 42.666667h256c17.066667 0 34.133333-8.533333 38.4-25.6s4.266667-34.133333-8.533333-46.933333l-256-256c-8.533333-8.533333-17.066667-12.8-29.866667-12.8H213.333333C140.8 42.666667 85.333333 98.133333 85.333333 170.666667v682.666666c0 72.533333 55.466667 128 128 128h597.333334c72.533333 0 128-55.466667 128-128v-362.666666c0-25.6-17.066667-42.666667-42.666667-42.666667z m-213.333333-260.266667L793.6 298.666667H682.666667V187.733333z" fill="#f4ea2a" /><path d="M324.266667 473.6c21.333333-8.533333 46.933333 0 55.466666 25.6l46.933334 115.2 46.933333-115.2c8.533333-17.066667 21.333333-25.6 38.4-25.6s34.133333 8.533333 38.4 25.6l46.933333 115.2 46.933334-115.2c8.533333-21.333333 34.133333-34.133333 55.466666-25.6 21.333333 8.533333 34.133333 34.133333 25.6 55.466667l-85.333333 213.333333c-8.533333 17.066667-25.6 25.6-42.666667 25.6s-34.133333-8.533333-38.4-25.6L512 627.2l-46.933333 115.2c-4.266667 17.066667-21.333333 25.6-38.4 25.6s-34.133333-8.533333-38.4-25.6l-85.333334-213.333333c-8.533333-21.333333 0-46.933333 21.333334-55.466667z" fill="#f4ea2a" /></svg>